<svg width="96" height="24" viewBox="0 0 96 24" fill="none" xmlns="http://www.w3.org/2000/svg">
  <path opacity="0.5" d="M13.75 16V9.75H17.5V11H18.75V12.25H17.5V13.5H15V16H13.75ZM15 12.25H17.45V11H15V12.25ZM21.25 16V9.75H22.5V14.75H25V16H21.25ZM27.5 16V11H28.75V9.75H31.25V11H32.5V16H31.25V13.5H28.75V16H27.5ZM28.75 12.25H31.25V11.05H28.75V12.25ZM35 16V9.75H36.25V16H35ZM38.75 16V9.75H40V11H41.25V12.25H42.5V13.5H43.75V9.75H45V16H43.75V14.75H42.5V13.5H41.25V12.25H40V16H38.75Z" fill="white"/>
  <path d="M51.5 12.25V11H49V9.75H51.5V11H52.75V12.25H51.5ZM49 16V14.75H47.75V11H49V14.75H51.5V16H49ZM51.5 14.75V13.5H52.75V14.75H51.5ZM56.5 16V14.75H55.25V11H56.5V9.75H59V11H60.25V14.75H59V16H56.5ZM56.5 14.7H59V11.05H56.5V14.7ZM62.75 16V9.75H64V14.75H66.5V16H62.75ZM70.25 16V14.75H69V11H70.25V9.75H72.75V11H74V14.75H72.75V16H70.25ZM70.25 14.7H72.75V11.05H70.25V14.7ZM76.5 16V9.75H80.25V11H81.5V12.25H80.25V14.75H81.5V16H80.25V14.75H79V13.5H77.75V16H76.5ZM77.75 12.25H80.2V11H77.75V12.25Z" fill="white"/>
  </svg>
  